<?xml version="1.0" encoding="UTF-8"?>
<svg width="825px" height="662px" viewBox="0 0 825 662" version="1.1" xmlns="http://www.w3.org/2000/svg" xmlns:xlink="http://www.w3.org/1999/xlink">
    <!-- Generator: Sketch 52.4 (67378) - http://www.bohemiancoding.com/sketch -->
    <title>Artboard</title>
    <desc>Created with Sketch.</desc>
    <g id="Artboard" stroke="none" stroke-width="1" fill="none" fill-rule="evenodd">
        <rect fill="#000000" x="0" y="0" width="825" height="662"></rect>
        <path d="M151.55,206.8 L143.9,252.25 L159.5,252.25 L151.85,206.8 L151.55,206.8 Z M169.25,184.9 L195.35,292 L165.65,292 L162.8,273.25 L140.6,273.25 L137.75,292 L108.5,292 L134.15,184.9 L169.25,184.9 Z M200,184.9 L231.2,184.9 L249.2,250.9 L249.5,250.9 L249.5,184.9 L275.6,184.9 L275.6,292 L245,292 L226.4,225.85 L226.1,225.85 L226.1,292 L200,292 L200,184.9 Z M323.75,206.8 L316.1,252.25 L331.7,252.25 L324.05,206.8 L323.75,206.8 Z M341.45,184.9 L367.55,292 L337.85,292 L335,273.25 L312.8,273.25 L309.95,292 L280.7,292 L306.35,184.9 L341.45,184.9 Z M372.2,184.9 L400.1,184.9 L400.1,269.2 L434.45,269.2 L434.45,292 L372.2,292 L372.2,184.9 Z M467.3,238.45 C467.3,245.650036 467.399999,251.624976 467.6,256.375 C467.800001,261.125024 468.224997,264.899986 468.875,267.7 C469.525003,270.500014 470.474994,272.449995 471.725,273.55 C472.975006,274.650006 474.649989,275.2 476.75,275.2 C478.85001,275.2 480.524994,274.650006 481.775,273.55 C483.025006,272.449995 483.974997,270.500014 484.625,267.7 C485.275003,264.899986 485.699999,261.125024 485.9,256.375 C486.100001,251.624976 486.2,245.650036 486.2,238.45 C486.2,231.249964 486.100001,225.275024 485.9,220.525 C485.699999,215.774976 485.275003,212.000014 484.625,209.2 C483.974997,206.399986 483.025006,204.450005 481.775,203.35 C480.524994,202.249995 478.85001,201.7 476.75,201.7 C474.649989,201.7 472.975006,202.249995 471.725,203.35 C470.474994,204.450005 469.525003,206.399986 468.875,209.2 C468.224997,212.000014 467.800001,215.774976 467.6,220.525 C467.399999,225.275024 467.3,231.249964 467.3,238.45 Z M438.5,238.45 C438.5,228.44995 439.149993,219.925035 440.45,212.875 C441.750007,205.824965 443.899985,200.075022 446.9,195.625 C449.900015,191.174978 453.849976,187.92501 458.75,185.875 C463.650025,183.82499 469.649965,182.8 476.75,182.8 C483.850036,182.8 489.849976,183.82499 494.75,185.875 C499.650025,187.92501 503.599985,191.174978 506.6,195.625 C509.600015,200.075022 511.749994,205.824965 513.05,212.875 C514.350007,219.925035 515,228.44995 515,238.45 C515,248.45005 514.350007,256.974965 513.05,264.025 C511.749994,271.075035 509.600015,276.824978 506.6,281.275 C503.599985,285.725022 499.650025,288.899991 494.75,290.8 C489.849976,292.70001 483.850036,293.65 476.75,293.65 C469.649965,293.65 463.650025,292.70001 458.75,290.8 C453.849976,288.899991 449.900015,285.725022 446.9,281.275 C443.899985,276.824978 441.750007,271.075035 440.45,264.025 C439.149993,256.974965 438.5,248.45005 438.5,238.45 Z M561.05,233.8 L597.05,233.8 L597.05,292 L578.15,292 L577.55,282.55 L577.25,282.55 C576.349995,284.850011 575.075008,286.749992 573.425,288.25 C571.774992,289.750007 569.92501,290.874996 567.875,291.625 C565.82499,292.375004 563.625012,292.899998 561.275,293.2 C558.924988,293.500001 556.550012,293.65 554.15,293.65 C547.049964,293.65 541.45002,292.475012 537.35,290.125 C533.249979,287.774988 530.15001,284.250023 528.05,279.55 C525.949989,274.849977 524.625003,269.050034 524.075,262.15 C523.524997,255.249966 523.25,247.350045 523.25,238.45 C523.25,229.449955 523.774995,221.500034 524.825,214.6 C525.875005,207.699966 527.874985,201.900023 530.825,197.2 C533.775015,192.499977 537.849974,188.925012 543.05,186.475 C548.250026,184.024988 554.949959,182.8 563.15,182.8 C568.050024,182.8 572.574979,183.449994 576.725,184.75 C580.875021,186.050006 584.449985,188.149985 587.45,191.05 C590.450015,193.950014 592.799991,197.674977 594.5,202.225 C596.200008,206.775023 597.05,212.299967 597.05,218.8 L570.05,218.8 C570.05,213.099972 569.550005,208.950013 568.55,206.35 C567.549995,203.249984 565.400016,201.7 562.1,201.7 C559.799988,201.7 557.975007,202.249995 556.625,203.35 C555.274993,204.450005 554.275003,206.399986 553.625,209.2 C552.974997,212.000014 552.550001,215.774976 552.35,220.525 C552.149999,225.275024 552.05,231.249964 552.05,238.45 C552.05,245.650036 552.149999,251.624976 552.35,256.375 C552.550001,261.125024 552.974997,264.899986 553.625,267.7 C554.275003,270.500014 555.224994,272.449995 556.475,273.55 C557.725006,274.650006 559.399989,275.2 561.5,275.2 C563.000007,275.2 564.324994,274.900003 565.475,274.3 C566.625006,273.699997 567.599996,272.575008 568.4,270.925 C569.200004,269.274992 569.824998,266.975015 570.275,264.025 C570.725002,261.074985 570.95,257.300023 570.95,252.7 L561.05,252.7 L561.05,233.8 Z M151.55,339.8 L143.9,385.25 L159.5,385.25 L151.85,339.8 L151.55,339.8 Z M169.25,317.9 L195.35,425 L165.65,425 L162.8,406.25 L140.6,406.25 L137.75,425 L108.5,425 L134.15,317.9 L169.25,317.9 Z M227.9,363.2 L233.45,363.2 C237.45002,363.2 240.399991,362.025012 242.3,359.675 C244.200009,357.324988 245.15,354.250019 245.15,350.45 C245.15,345.949977 244.225009,342.75001 242.375,340.85 C240.524991,338.949991 237.500021,338 233.3,338 L227.9,338 L227.9,363.2 Z M200,317.9 L243.65,317.9 C248.950026,317.9 253.474981,318.599993 257.225,320 C260.975019,321.400007 264.024988,323.374987 266.375,325.925 C268.725012,328.475013 270.424995,331.499982 271.475,335 C272.525005,338.500018 273.05,342.29998 273.05,346.4 C273.05,353.600036 271.600014,359.399978 268.7,363.8 C265.799985,368.200022 261.150032,370.899995 254.75,371.9 L254.75,372.2 C261.450034,372.800003 266.049987,375.149979 268.55,379.25 C271.050012,383.350021 272.3,388.999964 272.3,396.2 L272.3,409.7 C272.3,411.200007 272.349999,412.624993 272.45,413.975 C272.550001,415.325007 272.699999,416.549995 272.9,417.65 C273.100001,418.750005 273.349998,419.599997 273.65,420.2 C274.050002,420.800003 274.449998,421.374997 274.85,421.925 C275.250002,422.475003 275.899995,422.999998 276.8,423.5 L276.8,425 L247.1,425 C246.399996,423.599993 245.875002,421.950009 245.525,420.05 C245.174998,418.149991 244.925001,416.25001 244.775,414.35 C244.624999,412.449991 244.525,410.625009 244.475,408.875 C244.425,407.124991 244.4,405.700005 244.4,404.6 L244.4,397.4 C244.4,394.399985 244.250001,391.90001 243.95,389.9 C243.649998,387.89999 243.125004,386.325006 242.375,385.175 C241.624996,384.024994 240.675006,383.225002 239.525,382.775 C238.374994,382.324998 236.950008,382.1 235.25,382.1 L227.9,382.1 L227.9,425 L200,425 L200,317.9 Z M328.85,350.45 C328.85,344.34997 328.250006,340.200011 327.05,338 C325.849994,335.799989 323.900014,334.7 321.2,334.7 C319.099989,334.7 317.425006,335.249994 316.175,336.35 C314.924994,337.450005 313.975003,339.399986 313.325,342.2 C312.674997,345.000014 312.250001,348.774976 312.05,353.525 C311.849999,358.275024 311.75,364.249964 311.75,371.45 C311.75,378.650036 311.849999,384.624976 312.05,389.375 C312.250001,394.125024 312.674997,397.899986 313.325,400.7 C313.975003,403.500014 314.924994,405.449995 316.175,406.55 C317.425006,407.650006 319.099989,408.2 321.2,408.2 C322.900009,408.2 324.299995,407.775004 325.4,406.925 C326.500006,406.074996 327.349997,404.65001 327.95,402.65 C328.550003,400.64999 328.974999,397.975017 329.225,394.625 C329.475001,391.274983 329.6,387.050026 329.6,381.95 L356.6,381.95 L356.6,389.9 C356.6,397.400037 355.60001,403.549976 353.6,408.35 C351.59999,413.150024 348.950017,416.924986 345.65,419.675 C342.349984,422.425014 338.575021,424.274995 334.325,425.225 C330.074979,426.175005 325.700022,426.65 321.2,426.65 C313.399961,426.65 307.000025,425.70001 302,423.8 C296.999975,421.899991 293.100014,418.725022 290.3,414.275 C287.499986,409.824978 285.575005,404.075035 284.525,397.025 C283.474995,389.974965 282.95,381.45005 282.95,371.45 C282.95,361.249949 283.574994,352.600035 284.825,345.5 C286.075006,338.399965 288.199985,332.650022 291.2,328.25 C294.200015,323.849978 298.149975,320.67501 303.05,318.725 C307.950025,316.77499 313.999964,315.8 321.2,315.8 C327.500031,315.8 332.849978,316.599992 337.25,318.2 C341.650022,319.800008 345.224986,322.074985 347.975,325.025 C350.725014,327.975015 352.724994,331.524979 353.975,335.675 C355.225006,339.825021 355.85,344.499974 355.85,349.7 L355.85,356.45 L328.85,356.45 L328.85,350.45 Z M366.65,317.9 L394.55,317.9 L394.55,357.2 L411.65,357.2 L411.65,317.9 L439.55,317.9 L439.55,425 L411.65,425 L411.65,380.9 L394.55,380.9 L394.55,425 L366.65,425 L366.65,317.9 Z M451.7,317.9 L479.6,317.9 L479.6,425 L451.7,425 L451.7,317.9 Z M483.5,317.9 L512.75,317.9 L524,398.6 L524.3,398.6 L535.55,317.9 L565.25,317.9 L542.15,425 L506.15,425 L483.5,317.9 Z M569.75,317.9 L633.2,317.9 L633.2,340.7 L597.65,340.7 L597.65,359 L630.95,359 L630.95,380.9 L597.65,380.9 L597.65,402.2 L634.55,402.2 L634.55,425 L569.75,425 L569.75,317.9 Z M686.45,348.8 L686.45,346.25 C686.45,343.049984 685.800006,340.325011 684.5,338.075 C683.199993,335.824989 681.200013,334.7 678.5,334.7 C675.499985,334.7 673.300007,335.67499 671.9,337.625 C670.499993,339.57501 669.8,341.749988 669.8,344.15 C669.8,347.650017 670.924989,350.42499 673.175,352.475 C675.425011,354.52501 678.249983,356.299993 681.65,357.8 C685.050017,359.300007 688.699981,360.824992 692.6,362.375 C696.50002,363.925008 700.149983,365.949988 703.55,368.45 C706.950017,370.950012 709.774989,374.22498 712.025,378.275 C714.275011,382.32502 715.4,387.599967 715.4,394.1 C715.4,405.500057 712.150032,413.774974 705.65,418.925 C699.149968,424.075026 689.750061,426.65 677.45,426.65 C671.649971,426.65 666.525022,426.175005 662.075,425.225 C657.624978,424.274995 653.875015,422.625012 650.825,420.275 C647.774985,417.924988 645.450008,414.850019 643.85,411.05 C642.249992,407.249981 641.45,402.550028 641.45,396.95 L641.45,393.2 L668.45,393.2 L668.45,395.75 C668.45,400.350023 669.299992,403.574991 671,405.425 C672.700008,407.275009 674.899986,408.2 677.6,408.2 C680.500015,408.2 682.724992,407.20001 684.275,405.2 C685.825008,403.19999 686.6,400.750015 686.6,397.85 C686.6,394.349983 685.525011,391.57501 683.375,389.525 C681.224989,387.47499 678.525016,385.725007 675.275,384.275 C672.024984,382.824993 668.500019,381.350008 664.7,379.85 C660.899981,378.349992 657.375016,376.400012 654.125,374 C650.874984,371.599988 648.175011,368.45002 646.025,364.55 C643.874989,360.64998 642.8,355.550031 642.8,349.25 C642.8,338.349945 645.699971,330.050028 651.5,324.35 C657.300029,318.649971 666.099941,315.8 677.9,315.8 C690.100061,315.8 698.924973,318.424974 704.375,323.675 C709.825027,328.925026 712.55,337.299943 712.55,348.8 L686.45,348.8 Z" id="ANALOG-ARCHIVES" stroke="#FFFFFF" stroke-width="2" fill-opacity="0" fill="#FFFFFF"></path>
        <path d="M141.55,206.8 L133.9,252.25 L149.5,252.25 L141.85,206.8 L141.55,206.8 Z M159.25,184.9 L185.35,292 L155.65,292 L152.8,273.25 L130.6,273.25 L127.75,292 L98.5,292 L124.15,184.9 L159.25,184.9 Z M190,184.9 L221.2,184.9 L239.2,250.9 L239.5,250.9 L239.5,184.9 L265.6,184.9 L265.6,292 L235,292 L216.4,225.85 L216.1,225.85 L216.1,292 L190,292 L190,184.9 Z M313.75,206.8 L306.1,252.25 L321.7,252.25 L314.05,206.8 L313.75,206.8 Z M331.45,184.9 L357.55,292 L327.85,292 L325,273.25 L302.8,273.25 L299.95,292 L270.7,292 L296.35,184.9 L331.45,184.9 Z M362.2,184.9 L390.1,184.9 L390.1,269.2 L424.45,269.2 L424.45,292 L362.2,292 L362.2,184.9 Z M457.3,238.45 C457.3,245.650036 457.399999,251.624976 457.6,256.375 C457.800001,261.125024 458.224997,264.899986 458.875,267.7 C459.525003,270.500014 460.474994,272.449995 461.725,273.55 C462.975006,274.650006 464.649989,275.2 466.75,275.2 C468.85001,275.2 470.524994,274.650006 471.775,273.55 C473.025006,272.449995 473.974997,270.500014 474.625,267.7 C475.275003,264.899986 475.699999,261.125024 475.9,256.375 C476.100001,251.624976 476.2,245.650036 476.2,238.45 C476.2,231.249964 476.100001,225.275024 475.9,220.525 C475.699999,215.774976 475.275003,212.000014 474.625,209.2 C473.974997,206.399986 473.025006,204.450005 471.775,203.35 C470.524994,202.249995 468.85001,201.7 466.75,201.7 C464.649989,201.7 462.975006,202.249995 461.725,203.35 C460.474994,204.450005 459.525003,206.399986 458.875,209.2 C458.224997,212.000014 457.800001,215.774976 457.6,220.525 C457.399999,225.275024 457.3,231.249964 457.3,238.45 Z M428.5,238.45 C428.5,228.44995 429.149993,219.925035 430.45,212.875 C431.750006,205.824965 433.899985,200.075022 436.9,195.625 C439.900015,191.174978 443.849975,187.92501 448.75,185.875 C453.650024,183.82499 459.649964,182.8 466.75,182.8 C473.850035,182.8 479.849975,183.82499 484.75,185.875 C489.650024,187.92501 493.599985,191.174978 496.6,195.625 C499.600015,200.075022 501.749993,205.824965 503.05,212.875 C504.350006,219.925035 505,228.44995 505,238.45 C505,248.45005 504.350006,256.974965 503.05,264.025 C501.749993,271.075035 499.600015,276.824978 496.6,281.275 C493.599985,285.725022 489.650024,288.899991 484.75,290.8 C479.849975,292.70001 473.850035,293.65 466.75,293.65 C459.649964,293.65 453.650024,292.70001 448.75,290.8 C443.849975,288.899991 439.900015,285.725022 436.9,281.275 C433.899985,276.824978 431.750006,271.075035 430.45,264.025 C429.149993,256.974965 428.5,248.45005 428.5,238.45 Z M551.05,233.8 L587.05,233.8 L587.05,292 L568.15,292 L567.55,282.55 L567.25,282.55 C566.349995,284.850011 565.075008,286.749992 563.425,288.25 C561.774992,289.750007 559.92501,290.874996 557.875,291.625 C555.82499,292.375004 553.625012,292.899998 551.275,293.2 C548.924988,293.500001 546.550012,293.65 544.15,293.65 C537.049964,293.65 531.45002,292.475012 527.35,290.125 C523.249979,287.774988 520.15001,284.250023 518.05,279.55 C515.949989,274.849977 514.625003,269.050034 514.075,262.15 C513.524997,255.249966 513.25,247.350045 513.25,238.45 C513.25,229.449955 513.774995,221.500034 514.825,214.6 C515.875005,207.699966 517.874985,201.900023 520.825,197.2 C523.775015,192.499977 527.849974,188.925012 533.05,186.475 C538.250026,184.024988 544.949959,182.8 553.15,182.8 C558.050024,182.8 562.574979,183.449994 566.725,184.75 C570.875021,186.050006 574.449985,188.149985 577.45,191.05 C580.450015,193.950014 582.799991,197.674977 584.5,202.225 C586.200008,206.775023 587.05,212.299967 587.05,218.8 L560.05,218.8 C560.05,213.099972 559.550005,208.950013 558.55,206.35 C557.549995,203.249984 555.400016,201.7 552.1,201.7 C549.799988,201.7 547.975007,202.249995 546.625,203.35 C545.274993,204.450005 544.275003,206.399986 543.625,209.2 C542.974997,212.000014 542.550001,215.774976 542.35,220.525 C542.149999,225.275024 542.05,231.249964 542.05,238.45 C542.05,245.650036 542.149999,251.624976 542.35,256.375 C542.550001,261.125024 542.974997,264.899986 543.625,267.7 C544.275003,270.500014 545.224994,272.449995 546.475,273.55 C547.725006,274.650006 549.399989,275.2 551.5,275.2 C553.000007,275.2 554.324994,274.900003 555.475,274.3 C556.625006,273.699997 557.599996,272.575008 558.4,270.925 C559.200004,269.274992 559.824998,266.975015 560.275,264.025 C560.725002,261.074985 560.95,257.300023 560.95,252.7 L551.05,252.7 L551.05,233.8 Z M141.55,339.8 L133.9,385.25 L149.5,385.25 L141.85,339.8 L141.55,339.8 Z M159.25,317.9 L185.35,425 L155.65,425 L152.8,406.25 L130.6,406.25 L127.75,425 L98.5,425 L124.15,317.9 L159.25,317.9 Z M217.9,363.2 L223.45,363.2 C227.45002,363.2 230.399991,362.025012 232.3,359.675 C234.200009,357.324988 235.15,354.250019 235.15,350.45 C235.15,345.949977 234.225009,342.75001 232.375,340.85 C230.524991,338.949991 227.500021,338 223.3,338 L217.9,338 L217.9,363.2 Z M190,317.9 L233.65,317.9 C238.950026,317.9 243.474981,318.599993 247.225,320 C250.975019,321.400007 254.024988,323.374987 256.375,325.925 C258.725012,328.475013 260.424995,331.499982 261.475,335 C262.525005,338.500018 263.05,342.29998 263.05,346.4 C263.05,353.600036 261.600014,359.399978 258.7,363.8 C255.799985,368.200022 251.150032,370.899995 244.75,371.9 L244.75,372.2 C251.450033,372.800003 256.049987,375.149979 258.55,379.25 C261.050012,383.350021 262.3,388.999964 262.3,396.2 L262.3,409.7 C262.3,411.200007 262.349999,412.624993 262.45,413.975 C262.550001,415.325007 262.699999,416.549995 262.9,417.65 C263.100001,418.750005 263.349998,419.599997 263.65,420.2 C264.050002,420.800003 264.449998,421.374997 264.85,421.925 C265.250002,422.475003 265.899995,422.999998 266.8,423.5 L266.8,425 L237.1,425 C236.399996,423.599993 235.875002,421.950009 235.525,420.05 C235.174998,418.149991 234.925001,416.25001 234.775,414.35 C234.624999,412.449991 234.525,410.625009 234.475,408.875 C234.425,407.124991 234.4,405.700005 234.4,404.6 L234.4,397.4 C234.4,394.399985 234.250001,391.90001 233.95,389.9 C233.649998,387.89999 233.125004,386.325006 232.375,385.175 C231.624996,384.024994 230.675006,383.225002 229.525,382.775 C228.374994,382.324998 226.950008,382.1 225.25,382.1 L217.9,382.1 L217.9,425 L190,425 L190,317.9 Z M318.85,350.45 C318.85,344.34997 318.250006,340.200011 317.05,338 C315.849994,335.799989 313.900014,334.7 311.2,334.7 C309.099989,334.7 307.425006,335.249994 306.175,336.35 C304.924994,337.450005 303.975003,339.399986 303.325,342.2 C302.674997,345.000014 302.250001,348.774976 302.05,353.525 C301.849999,358.275024 301.75,364.249964 301.75,371.45 C301.75,378.650036 301.849999,384.624976 302.05,389.375 C302.250001,394.125024 302.674997,397.899986 303.325,400.7 C303.975003,403.500014 304.924994,405.449995 306.175,406.55 C307.425006,407.650006 309.099989,408.2 311.2,408.2 C312.900009,408.2 314.299995,407.775004 315.4,406.925 C316.500006,406.074996 317.349997,404.65001 317.95,402.65 C318.550003,400.64999 318.974999,397.975017 319.225,394.625 C319.475001,391.274983 319.6,387.050026 319.6,381.95 L346.6,381.95 L346.6,389.9 C346.6,397.400037 345.60001,403.549976 343.6,408.35 C341.59999,413.150024 338.950017,416.924986 335.65,419.675 C332.349984,422.425014 328.575021,424.274995 324.325,425.225 C320.074979,426.175005 315.700022,426.65 311.2,426.65 C303.399961,426.65 297.000025,425.70001 292,423.8 C286.999975,421.899991 283.100014,418.725022 280.3,414.275 C277.499986,409.824978 275.575005,404.075035 274.525,397.025 C273.474995,389.974965 272.95,381.45005 272.95,371.45 C272.95,361.249949 273.574994,352.600035 274.825,345.5 C276.075006,338.399965 278.199985,332.650022 281.2,328.25 C284.200015,323.849978 288.149975,320.67501 293.05,318.725 C297.950025,316.77499 303.999964,315.8 311.2,315.8 C317.500031,315.8 322.849978,316.599992 327.25,318.2 C331.650022,319.800008 335.224986,322.074985 337.975,325.025 C340.725014,327.975015 342.724994,331.524979 343.975,335.675 C345.225006,339.825021 345.85,344.499974 345.85,349.7 L345.85,356.45 L318.85,356.45 L318.85,350.45 Z M356.65,317.9 L384.55,317.9 L384.55,357.2 L401.65,357.2 L401.65,317.9 L429.55,317.9 L429.55,425 L401.65,425 L401.65,380.9 L384.55,380.9 L384.55,425 L356.65,425 L356.65,317.9 Z M441.7,317.9 L469.6,317.9 L469.6,425 L441.7,425 L441.7,317.9 Z M473.5,317.9 L502.75,317.9 L514,398.6 L514.3,398.6 L525.55,317.9 L555.25,317.9 L532.15,425 L496.15,425 L473.5,317.9 Z M559.75,317.9 L623.2,317.9 L623.2,340.7 L587.65,340.7 L587.65,359 L620.95,359 L620.95,380.9 L587.65,380.9 L587.65,402.2 L624.55,402.2 L624.55,425 L559.75,425 L559.75,317.9 Z M676.45,348.8 L676.45,346.25 C676.45,343.049984 675.800006,340.325011 674.5,338.075 C673.199993,335.824989 671.200013,334.7 668.5,334.7 C665.499985,334.7 663.300007,335.67499 661.9,337.625 C660.499993,339.57501 659.8,341.749988 659.8,344.15 C659.8,347.650017 660.924989,350.42499 663.175,352.475 C665.425011,354.52501 668.249983,356.299993 671.65,357.8 C675.050017,359.300007 678.699981,360.824992 682.6,362.375 C686.50002,363.925008 690.149983,365.949988 693.55,368.45 C696.950017,370.950012 699.774989,374.22498 702.025,378.275 C704.275011,382.32502 705.4,387.599967 705.4,394.1 C705.4,405.500057 702.150032,413.774974 695.65,418.925 C689.149968,424.075026 679.750061,426.65 667.45,426.65 C661.649971,426.65 656.525022,426.175005 652.075,425.225 C647.624978,424.274995 643.875015,422.625012 640.825,420.275 C637.774985,417.924988 635.450008,414.850019 633.85,411.05 C632.249992,407.249981 631.45,402.550028 631.45,396.95 L631.45,393.2 L658.45,393.2 L658.45,395.75 C658.45,400.350023 659.299992,403.574991 661,405.425 C662.700008,407.275009 664.899986,408.2 667.6,408.2 C670.500015,408.2 672.724992,407.20001 674.275,405.2 C675.825008,403.19999 676.6,400.750015 676.6,397.85 C676.6,394.349983 675.525011,391.57501 673.375,389.525 C671.224989,387.47499 668.525016,385.725007 665.275,384.275 C662.024984,382.824993 658.500019,381.350008 654.7,379.85 C650.899981,378.349992 647.375016,376.400012 644.125,374 C640.874984,371.599988 638.175011,368.45002 636.025,364.55 C633.874989,360.64998 632.8,355.550031 632.8,349.25 C632.8,338.349945 635.699971,330.050028 641.5,324.35 C647.300029,318.649971 656.099941,315.8 667.9,315.8 C680.100061,315.8 688.924973,318.424974 694.375,323.675 C699.825027,328.925026 702.55,337.299943 702.55,348.8 L676.45,348.8 Z" id="ANALOG-ARCHIVES" stroke="#FFFFFF" stroke-width="2" fill="#000000"></path>
    </g>
</svg>