<?xml version="1.0" encoding="UTF-8"?>
<svg width="454px" height="179px" viewBox="0 0 454 179" version="1.1" xmlns="http://www.w3.org/2000/svg" xmlns:xlink="http://www.w3.org/1999/xlink">
    <!-- Generator: Sketch 52.4 (67378) - http://www.bohemiancoding.com/sketch -->
    <title>Artboard Copy 6</title>
    <desc>Created with Sketch.</desc>
    <g id="Artboard-Copy-6" stroke="none" stroke-width="1" fill="none" fill-rule="evenodd">
        <rect fill="#000000" x="0" y="0" width="454" height="179"></rect>
        <g id="Group" transform="translate(4.000000, 2.000000)" stroke="#FFFFFF" stroke-width="2">
            <path d="M39.1401384,17.1252819 L33.606525,49.5562846 L44.8907563,49.5562846 L39.3571429,17.1252819 L39.1401384,17.1252819 Z M51.9434009,1.49846217 L70.8227879,77.9200328 L49.3393475,77.9200328 L47.2778052,64.5409063 L31.219476,64.5409063 L29.1579338,77.9200328 L8,77.9200328 L26.5538804,1.49846217 L51.9434009,1.49846217 Z M74.1863569,1.49846217 L96.7548196,1.49846217 L109.775087,48.5929875 L109.992091,48.5929875 L109.992091,1.49846217 L128.871478,1.49846217 L128.871478,77.9200328 L106.737024,77.9200328 L93.2827484,30.7184745 L93.0657439,30.7184745 L93.0657439,77.9200328 L74.1863569,77.9200328 L74.1863569,1.49846217 Z M163.700692,17.1252819 L158.167079,49.5562846 L169.45131,49.5562846 L163.917696,17.1252819 L163.700692,17.1252819 Z M176.503955,1.49846217 L195.383342,77.9200328 L173.899901,77.9200328 L171.838359,64.5409063 L155.78003,64.5409063 L153.718487,77.9200328 L132.560554,77.9200328 L151.114434,1.49846217 L176.503955,1.49846217 Z M198.746911,1.49846217 L218.928324,1.49846217 L218.928324,61.651015 L243.775334,61.651015 L243.775334,77.9200328 L198.746911,77.9200328 L198.746911,1.49846217 Z M267.537321,39.7092475 C267.537321,44.8468578 267.609655,49.1102968 267.754325,52.4996924 C267.898996,55.8890881 268.206416,58.5827253 268.676594,60.5806848 C269.146773,62.5786444 269.833947,63.9700596 270.738136,64.7549723 C271.642326,65.539885 272.853922,65.9323355 274.372961,65.9323355 C275.892,65.9323355 277.103596,65.539885 278.007785,64.7549723 C278.911975,63.9700596 279.599149,62.5786444 280.069328,60.5806848 C280.539506,58.5827253 280.846926,55.8890881 280.991597,52.4996924 C281.136267,49.1102968 281.208601,44.8468578 281.208601,39.7092475 C281.208601,34.5716372 281.136267,30.3081982 280.991597,26.9188025 C280.846926,23.5294069 280.539506,20.8357697 280.069328,18.8378101 C279.599149,16.8398506 278.911975,15.4484353 278.007785,14.6635227 C277.103596,13.87861 275.892,13.4861595 274.372961,13.4861595 C272.853922,13.4861595 271.642326,13.87861 270.738136,14.6635227 C269.833947,15.4484353 269.146773,16.8398506 268.676594,18.8378101 C268.206416,20.8357697 267.898996,23.5294069 267.754325,26.9188025 C267.609655,30.3081982 267.537321,34.5716372 267.537321,39.7092475 Z M246.704894,39.7092475 C246.704894,32.5736777 247.175065,26.4906956 248.115423,21.4601189 C249.05578,16.4295422 250.610963,12.3266511 252.781018,9.15132253 C254.951074,5.97599397 257.80827,3.65696856 261.352694,2.19417675 C264.897118,0.731384935 269.237163,0 274.372961,0 C279.508759,0 283.848804,0.731384935 287.393228,2.19417675 C290.937652,3.65696856 293.794848,5.97599397 295.964904,9.15132253 C298.134959,12.3266511 299.690142,16.4295422 300.630499,21.4601189 C301.570857,26.4906956 302.041028,32.5736777 302.041028,39.7092475 C302.041028,46.8448173 301.570857,52.9277993 300.630499,57.9583761 C299.690142,62.9889528 298.134959,67.0918439 295.964904,70.2671724 C293.794848,73.442501 290.937652,75.7080104 287.393228,77.0637687 C283.848804,78.419527 279.508759,79.0973959 274.372961,79.0973959 C269.237163,79.0973959 264.897118,78.419527 261.352694,77.0637687 C257.80827,75.7080104 254.951074,73.442501 252.781018,70.2671724 C250.610963,67.0918439 249.05578,62.9889528 248.115423,57.9583761 C247.175065,52.9277993 246.704894,46.8448173 246.704894,39.7092475 Z M335.351211,36.3912241 L361.391745,36.3912241 L361.391745,77.9200328 L347.720465,77.9200328 L347.286456,71.176953 L347.069451,71.176953 C346.418435,72.8181341 345.496175,74.173872 344.302645,75.2442075 C343.109114,76.314543 341.770933,77.1172825 340.288062,77.6524503 C338.805191,78.187618 337.213841,78.5622298 335.513964,78.7762969 C333.814088,78.990364 332.096153,79.0973959 330.360109,79.0973959 C325.224311,79.0973959 321.173602,78.2589791 318.20786,76.5821202 C315.242117,74.9052612 312.99976,72.3900106 311.480722,69.0362928 C309.961683,65.682575 309.003256,61.5440066 308.605413,56.6204634 C308.207569,51.6969202 308.008651,46.0599046 308.008651,39.7092475 C308.008651,33.2872347 308.388405,27.6145417 309.147924,22.6909986 C309.907443,17.7674554 311.354125,13.628887 313.488013,10.2751692 C315.621901,6.92145135 318.569515,4.3705234 322.330944,2.6223088 C326.092373,0.874094191 330.938758,0 336.870242,0 C340.414666,0 343.687784,0.463805081 346.689694,1.39142916 C349.691603,2.31905323 352.277547,3.81750042 354.447603,5.88681567 C356.617658,7.95613091 358.317509,10.6140908 359.547207,13.8607751 C360.776905,17.1074593 361.391745,21.0498025 361.391745,25.6879229 L341.861345,25.6879229 C341.861345,21.6206481 341.499674,18.6594311 340.776322,16.8041829 C340.052971,14.5921563 338.497788,13.4861595 336.110727,13.4861595 C334.447018,13.4861595 333.12692,13.87861 332.150395,14.6635227 C331.173871,15.4484353 330.45053,16.8398506 329.980351,18.8378101 C329.510172,20.8357697 329.202752,23.5294069 329.058082,26.9188025 C328.913412,30.3081982 328.841078,34.5716372 328.841078,39.7092475 C328.841078,44.8468578 328.913412,49.1102968 329.058082,52.4996924 C329.202752,55.8890881 329.510172,58.5827253 329.980351,60.5806848 C330.45053,62.5786444 331.137704,63.9700596 332.041893,64.7549723 C332.946083,65.539885 334.157679,65.9323355 335.676718,65.9323355 C336.761745,65.9323355 337.720172,65.7182716 338.552027,65.2901374 C339.383881,64.8620032 340.089139,64.0592636 340.66782,62.8818946 C341.246501,61.7045256 341.69859,60.0633691 342.024098,57.9583761 C342.349606,55.853383 342.512358,53.1597458 342.512358,49.8773836 L335.351211,49.8773836 L335.351211,36.3912241 Z M39.1401384,112.027886 L33.606525,144.458889 L44.8907563,144.458889 L39.3571429,112.027886 L39.1401384,112.027886 Z M51.9434009,96.4010662 L70.8227879,172.822637 L49.3393475,172.822637 L47.2778052,159.44351 L31.219476,159.44351 L29.1579338,172.822637 L8,172.822637 L26.5538804,96.4010662 L51.9434009,96.4010662 Z M94.3677706,128.725036 L98.3823529,128.725036 C101.27576,128.725036 103.409616,127.886619 104.783984,126.20976 C106.158353,124.532901 106.845526,122.338746 106.845526,119.62723 C106.845526,116.416223 106.176436,114.132875 104.838235,112.777117 C103.500035,111.421359 101.311928,110.74349 98.2738507,110.74349 L94.3677706,110.74349 L94.3677706,128.725036 Z M74.1863569,96.4010662 L105.760504,96.4010662 C109.594269,96.4010662 112.867386,96.9005486 115.579956,97.8995284 C118.292525,98.8985082 120.498715,100.307762 122.198591,102.127332 C123.898468,103.946903 125.128147,106.10538 125.887667,108.60283 C126.647186,111.100279 127.02694,113.811755 127.02694,116.737339 C127.02694,121.874949 125.978096,126.013517 123.880376,129.153168 C121.782656,132.292819 118.41912,134.219394 113.789669,134.932951 L113.789669,135.147017 C118.636126,135.575151 121.963494,137.251985 123.771873,140.177568 C125.580253,143.103152 126.484429,147.134688 126.484429,152.272299 L126.484429,161.90527 C126.484429,162.975605 126.520596,163.992409 126.592931,164.95571 C126.665266,165.919012 126.773768,166.793107 126.918438,167.578019 C127.063108,168.362932 127.243944,168.969446 127.460949,169.39758 C127.75029,169.825715 128.039626,170.236004 128.328967,170.62846 C128.618308,171.020916 129.088479,171.395528 129.739496,171.752307 L129.739496,172.822637 L108.256055,172.822637 C107.749709,171.823657 107.369955,170.646306 107.116782,169.290547 C106.863609,167.934789 106.682774,166.579051 106.574271,165.223293 C106.465768,163.867535 106.393434,162.565313 106.357266,161.316588 C106.321099,160.067863 106.303015,159.05106 106.303015,158.266147 L106.303015,153.128563 C106.303015,150.987892 106.194514,149.204026 105.977509,147.776912 C105.760503,146.349798 105.380749,145.225963 104.838235,144.405372 C104.295721,143.584782 103.608548,143.013945 102.776693,142.692844 C101.944838,142.371743 100.914078,142.211195 99.6843796,142.211195 L94.3677706,142.211195 L94.3677706,172.822637 L74.1863569,172.822637 L74.1863569,96.4010662 Z M167.389768,119.62723 C167.389768,115.274532 166.955763,112.313315 166.087741,110.74349 C165.219719,109.173664 163.809204,108.388764 161.856154,108.388764 C160.337115,108.388764 159.125519,108.781214 158.22133,109.566127 C157.31714,110.351039 156.629966,111.742455 156.159787,113.740414 C155.689609,115.738374 155.382189,118.432011 155.237519,121.821407 C155.092848,125.210802 155.020514,129.474241 155.020514,134.611852 C155.020514,139.749462 155.092848,144.012901 155.237519,147.402296 C155.382189,150.791692 155.689609,153.485329 156.159787,155.483289 C156.629966,157.481248 157.31714,158.872664 158.22133,159.657576 C159.125519,160.442489 160.337115,160.83494 161.856154,160.83494 C163.085852,160.83494 164.09853,160.531682 164.894217,159.925159 C165.689903,159.318635 166.304743,158.301832 166.738754,156.874718 C167.172765,155.447604 167.480185,153.538868 167.661023,151.148452 C167.841861,148.758036 167.932279,145.743303 167.932279,142.104162 L187.462679,142.104162 L187.462679,147.776912 C187.462679,153.128589 186.739338,157.516899 185.292635,160.941973 C183.845931,164.367046 181.929078,167.060683 179.542017,169.022965 C177.154956,170.985247 174.424344,172.305307 171.350099,172.983186 C168.275854,173.661066 165.111237,174 161.856154,174 C156.21401,174 151.584628,173.322131 147.96787,171.966373 C144.351111,170.610615 141.530081,168.345105 139.504696,165.169777 C137.479311,161.994448 136.08688,157.891557 135.32736,152.86098 C134.567841,147.830403 134.188087,141.747421 134.188087,134.611852 C134.188087,127.33357 134.640175,121.161395 135.544365,116.09514 C136.448555,111.028886 137.985654,106.925995 140.155709,103.786344 C142.325765,100.646693 145.182961,98.3811839 148.727385,96.9897478 C152.271809,95.5983117 156.648021,94.9026041 161.856154,94.9026041 C166.41327,94.9026041 170.283144,95.4734411 173.465892,96.6151323 C176.64864,97.7568234 179.234584,99.3801412 181.223801,101.485134 C183.213019,103.590127 184.659701,106.123217 185.56389,109.084478 C186.46808,112.04574 186.920168,115.381568 186.920168,119.092065 L186.920168,123.90855 L167.389768,123.90855 L167.389768,119.62723 Z M194.732328,96.4010662 L214.913742,96.4010662 L214.913742,124.443715 L227.282996,124.443715 L227.282996,96.4010662 L247.464409,96.4010662 L247.464409,172.822637 L227.282996,172.822637 L227.282996,141.354931 L214.913742,141.354931 L214.913742,172.822637 L194.732328,172.822637 L194.732328,96.4010662 Z M256.253089,96.4010662 L276.434503,96.4010662 L276.434503,172.822637 L256.253089,172.822637 L256.253089,96.4010662 Z M279.255561,96.4010662 L300.413495,96.4010662 L308.551162,153.984827 L308.768166,153.984827 L316.905833,96.4010662 L338.389273,96.4010662 L321.679931,172.822637 L295.639397,172.822637 L279.255561,96.4010662 Z M341.64434,96.4010662 L387.540781,96.4010662 L387.540781,112.670084 L361.825754,112.670084 L361.825754,125.728112 L385.913248,125.728112 L385.913248,141.354931 L361.825754,141.354931 L361.825754,156.553619 L388.517301,156.553619 L388.517301,172.822637 L341.64434,172.822637 L341.64434,96.4010662 Z M426.059071,118.449867 L426.059071,116.630306 C426.059071,114.346923 425.588899,112.40251 424.648542,110.797006 C423.708184,109.191503 422.261503,108.388764 420.308453,108.388764 C418.138397,108.388764 416.547047,109.084471 415.534355,110.475907 C414.521662,111.867343 414.015324,113.419307 414.015324,115.131843 C414.015324,117.629293 414.829082,119.609384 416.456624,121.072176 C418.084165,122.534967 420.127603,123.801512 422.587,124.871847 C425.046396,125.942183 427.68659,127.030341 430.507662,128.136354 C433.328734,129.242368 435.968928,130.687299 438.428324,132.471191 C440.88772,134.255084 442.931158,136.591948 444.5587,139.481854 C446.186241,142.371759 447,146.135716 447,150.773836 C447,158.908386 444.649142,164.812981 439.947355,168.4878 C435.245569,172.162618 428.446164,174 419.548937,174 C415.353497,174 411.646375,173.661066 408.427459,172.983186 C405.208544,172.305307 402.496015,171.127956 400.289792,169.451097 C398.083569,167.774238 396.401802,165.580083 395.244439,162.868567 C394.087076,160.15705 393.508403,156.803383 393.508403,152.807464 L393.508403,150.131638 L413.038804,150.131638 L413.038804,151.9512 C413.038804,155.233562 413.653644,157.534748 414.883342,158.854829 C416.11304,160.174909 417.70439,160.83494 419.657439,160.83494 C421.75516,160.83494 423.364593,160.121393 424.485788,158.694279 C425.606984,157.267165 426.167573,155.518977 426.167573,153.449662 C426.167573,150.952212 425.389981,148.972121 423.834775,147.50933 C422.279569,146.046538 420.326548,144.797832 417.975655,143.763174 C415.624762,142.728516 413.074985,141.676036 410.326248,140.6057 C407.577511,139.535365 405.027735,138.14395 402.676841,136.431413 C400.325948,134.718876 398.372928,132.471205 396.817721,129.688333 C395.262515,126.905461 394.484923,123.266375 394.484923,118.770966 C394.484923,110.993195 396.582612,105.070761 400.778052,101.003486 C404.973493,96.936211 411.338893,94.9026041 419.874444,94.9026041 C428.699336,94.9026041 435.082819,96.775663 439.025087,100.521837 C442.967354,104.268011 444.938458,110.243961 444.938458,118.449867 L426.059071,118.449867 Z" id="ANALOG-ARCHIVES" fill="#FFFFFF"></path>
            <path d="M31.1401384,17.1252819 L25.606525,49.5562846 L36.8907563,49.5562846 L31.3571429,17.1252819 L31.1401384,17.1252819 Z M43.9434009,1.49846217 L62.8227879,77.9200328 L41.3393475,77.9200328 L39.2778052,64.5409063 L23.219476,64.5409063 L21.1579338,77.9200328 L0,77.9200328 L18.5538804,1.49846217 L43.9434009,1.49846217 Z M66.1863569,1.49846217 L88.7548196,1.49846217 L101.775087,48.5929875 L101.992091,48.5929875 L101.992091,1.49846217 L120.871478,1.49846217 L120.871478,77.9200328 L98.7370242,77.9200328 L85.2827484,30.7184745 L85.0657439,30.7184745 L85.0657439,77.9200328 L66.1863569,77.9200328 L66.1863569,1.49846217 Z M155.700692,17.1252819 L150.167079,49.5562846 L161.45131,49.5562846 L155.917696,17.1252819 L155.700692,17.1252819 Z M168.503955,1.49846217 L187.383342,77.9200328 L165.899901,77.9200328 L163.838359,64.5409063 L147.78003,64.5409063 L145.718487,77.9200328 L124.560554,77.9200328 L143.114434,1.49846217 L168.503955,1.49846217 Z M190.746911,1.49846217 L210.928324,1.49846217 L210.928324,61.651015 L235.775334,61.651015 L235.775334,77.9200328 L190.746911,77.9200328 L190.746911,1.49846217 Z M259.537321,39.7092475 C259.537321,44.8468578 259.609655,49.1102968 259.754325,52.4996924 C259.898996,55.8890881 260.206416,58.5827253 260.676594,60.5806848 C261.146773,62.5786444 261.833947,63.9700596 262.738136,64.7549723 C263.642326,65.539885 264.853922,65.9323355 266.372961,65.9323355 C267.892,65.9323355 269.103596,65.539885 270.007785,64.7549723 C270.911975,63.9700596 271.599149,62.5786444 272.069328,60.5806848 C272.539506,58.5827253 272.846926,55.8890881 272.991597,52.4996924 C273.136267,49.1102968 273.208601,44.8468578 273.208601,39.7092475 C273.208601,34.5716372 273.136267,30.3081982 272.991597,26.9188025 C272.846926,23.5294069 272.539506,20.8357697 272.069328,18.8378101 C271.599149,16.8398506 270.911975,15.4484353 270.007785,14.6635227 C269.103596,13.87861 267.892,13.4861595 266.372961,13.4861595 C264.853922,13.4861595 263.642326,13.87861 262.738136,14.6635227 C261.833947,15.4484353 261.146773,16.8398506 260.676594,18.8378101 C260.206416,20.8357697 259.898996,23.5294069 259.754325,26.9188025 C259.609655,30.3081982 259.537321,34.5716372 259.537321,39.7092475 Z M238.704894,39.7092475 C238.704894,32.5736777 239.175065,26.4906956 240.115423,21.4601189 C241.05578,16.4295422 242.610963,12.3266511 244.781018,9.15132253 C246.951074,5.97599397 249.80827,3.65696856 253.352694,2.19417675 C256.897118,0.731384935 261.237163,0 266.372961,0 C271.508759,0 275.848804,0.731384935 279.393228,2.19417675 C282.937652,3.65696856 285.794848,5.97599397 287.964904,9.15132253 C290.134959,12.3266511 291.690142,16.4295422 292.630499,21.4601189 C293.570857,26.4906956 294.041028,32.5736777 294.041028,39.7092475 C294.041028,46.8448173 293.570857,52.9277993 292.630499,57.9583761 C291.690142,62.9889528 290.134959,67.0918439 287.964904,70.2671724 C285.794848,73.442501 282.937652,75.7080104 279.393228,77.0637687 C275.848804,78.419527 271.508759,79.0973959 266.372961,79.0973959 C261.237163,79.0973959 256.897118,78.419527 253.352694,77.0637687 C249.80827,75.7080104 246.951074,73.442501 244.781018,70.2671724 C242.610963,67.0918439 241.05578,62.9889528 240.115423,57.9583761 C239.175065,52.9277993 238.704894,46.8448173 238.704894,39.7092475 Z M327.351211,36.3912241 L353.391745,36.3912241 L353.391745,77.9200328 L339.720465,77.9200328 L339.286456,71.176953 L339.069451,71.176953 C338.418435,72.8181341 337.496175,74.173872 336.302645,75.2442075 C335.109114,76.314543 333.770933,77.1172825 332.288062,77.6524503 C330.805191,78.187618 329.213841,78.5622298 327.513964,78.7762969 C325.814088,78.990364 324.096153,79.0973959 322.360109,79.0973959 C317.224311,79.0973959 313.173602,78.2589791 310.20786,76.5821202 C307.242117,74.9052612 304.99976,72.3900106 303.480722,69.0362928 C301.961683,65.682575 301.003256,61.5440066 300.605413,56.6204634 C300.207569,51.6969202 300.008651,46.0599046 300.008651,39.7092475 C300.008651,33.2872347 300.388405,27.6145417 301.147924,22.6909986 C301.907443,17.7674554 303.354125,13.628887 305.488013,10.2751692 C307.621901,6.92145135 310.569515,4.3705234 314.330944,2.6223088 C318.092373,0.874094191 322.938758,0 328.870242,0 C332.414666,0 335.687784,0.463805081 338.689694,1.39142916 C341.691603,2.31905323 344.277547,3.81750042 346.447603,5.88681567 C348.617658,7.95613091 350.317509,10.6140908 351.547207,13.8607751 C352.776905,17.1074593 353.391745,21.0498025 353.391745,25.6879229 L333.861345,25.6879229 C333.861345,21.6206481 333.499674,18.6594311 332.776322,16.8041829 C332.052971,14.5921563 330.497788,13.4861595 328.110727,13.4861595 C326.447018,13.4861595 325.12692,13.87861 324.150395,14.6635227 C323.173871,15.4484353 322.45053,16.8398506 321.980351,18.8378101 C321.510172,20.8357697 321.202752,23.5294069 321.058082,26.9188025 C320.913412,30.3081982 320.841078,34.5716372 320.841078,39.7092475 C320.841078,44.8468578 320.913412,49.1102968 321.058082,52.4996924 C321.202752,55.8890881 321.510172,58.5827253 321.980351,60.5806848 C322.45053,62.5786444 323.137704,63.9700596 324.041893,64.7549723 C324.946083,65.539885 326.157679,65.9323355 327.676718,65.9323355 C328.761745,65.9323355 329.720172,65.7182716 330.552027,65.2901374 C331.383881,64.8620032 332.089139,64.0592636 332.66782,62.8818946 C333.246501,61.7045256 333.69859,60.0633691 334.024098,57.9583761 C334.349606,55.853383 334.512358,53.1597458 334.512358,49.8773836 L327.351211,49.8773836 L327.351211,36.3912241 Z M31.1401384,112.027886 L25.606525,144.458889 L36.8907563,144.458889 L31.3571429,112.027886 L31.1401384,112.027886 Z M43.9434009,96.4010662 L62.8227879,172.822637 L41.3393475,172.822637 L39.2778052,159.44351 L23.219476,159.44351 L21.1579338,172.822637 L0,172.822637 L18.5538804,96.4010662 L43.9434009,96.4010662 Z M86.3677706,128.725036 L90.3823529,128.725036 C93.2757601,128.725036 95.4096158,127.886619 96.7839842,126.20976 C98.1583526,124.532901 98.8455264,122.338746 98.8455264,119.62723 C98.8455264,116.416223 98.1764361,114.132875 96.8382353,112.777117 C95.5000345,111.421359 93.3119282,110.74349 90.2738507,110.74349 L86.3677706,110.74349 L86.3677706,128.725036 Z M66.1863569,96.4010662 L97.7605042,96.4010662 C101.594269,96.4010662 104.867386,96.9005486 107.579956,97.8995284 C110.292525,98.8985082 112.498715,100.307762 114.198591,102.127332 C115.898468,103.946903 117.128147,106.10538 117.887667,108.60283 C118.647186,111.100279 119.02694,113.811755 119.02694,116.737339 C119.02694,121.874949 117.978096,126.013517 115.880376,129.153168 C113.782656,132.292819 110.41912,134.219394 105.789669,134.932951 L105.789669,135.147017 C110.636126,135.575151 113.963494,137.251985 115.771873,140.177568 C117.580253,143.103152 118.484429,147.134688 118.484429,152.272299 L118.484429,161.90527 C118.484429,162.975605 118.520596,163.992409 118.592931,164.95571 C118.665266,165.919012 118.773768,166.793107 118.918438,167.578019 C119.063108,168.362932 119.243944,168.969446 119.460949,169.39758 C119.75029,169.825715 120.039626,170.236004 120.328967,170.62846 C120.618308,171.020916 121.088479,171.395528 121.739496,171.752307 L121.739496,172.822637 L100.256055,172.822637 C99.7497091,171.823657 99.3699551,170.646306 99.116782,169.290547 C98.8636089,167.934789 98.6827737,166.579051 98.5742709,165.223293 C98.4657681,163.867535 98.393434,162.565313 98.3572664,161.316588 C98.3210988,160.067863 98.3030153,159.05106 98.3030153,158.266147 L98.3030153,153.128563 C98.3030153,150.987892 98.1945142,149.204026 97.9775087,147.776912 C97.7605031,146.349798 97.3807491,145.225963 96.8382353,144.405372 C96.2957215,143.584782 95.6085476,143.013945 94.776693,142.692844 C93.9448385,142.371743 92.9140777,142.211195 91.6843796,142.211195 L86.3677706,142.211195 L86.3677706,172.822637 L66.1863569,172.822637 L66.1863569,96.4010662 Z M159.389768,119.62723 C159.389768,115.274532 158.955763,112.313315 158.087741,110.74349 C157.219719,109.173664 155.809204,108.388764 153.856154,108.388764 C152.337115,108.388764 151.125519,108.781214 150.22133,109.566127 C149.31714,110.351039 148.629966,111.742455 148.159787,113.740414 C147.689609,115.738374 147.382189,118.432011 147.237519,121.821407 C147.092848,125.210802 147.020514,129.474241 147.020514,134.611852 C147.020514,139.749462 147.092848,144.012901 147.237519,147.402296 C147.382189,150.791692 147.689609,153.485329 148.159787,155.483289 C148.629966,157.481248 149.31714,158.872664 150.22133,159.657576 C151.125519,160.442489 152.337115,160.83494 153.856154,160.83494 C155.085852,160.83494 156.09853,160.531682 156.894217,159.925159 C157.689903,159.318635 158.304743,158.301832 158.738754,156.874718 C159.172765,155.447604 159.480185,153.538868 159.661023,151.148452 C159.841861,148.758036 159.932279,145.743303 159.932279,142.104162 L179.462679,142.104162 L179.462679,147.776912 C179.462679,153.128589 178.739338,157.516899 177.292635,160.941973 C175.845931,164.367046 173.929078,167.060683 171.542017,169.022965 C169.154956,170.985247 166.424344,172.305307 163.350099,172.983186 C160.275854,173.661066 157.111237,174 153.856154,174 C148.21401,174 143.584628,173.322131 139.96787,171.966373 C136.351111,170.610615 133.530081,168.345105 131.504696,165.169777 C129.479311,161.994448 128.08688,157.891557 127.32736,152.86098 C126.567841,147.830403 126.188087,141.747421 126.188087,134.611852 C126.188087,127.33357 126.640175,121.161395 127.544365,116.09514 C128.448555,111.028886 129.985654,106.925995 132.155709,103.786344 C134.325765,100.646693 137.182961,98.3811839 140.727385,96.9897478 C144.271809,95.5983117 148.648021,94.9026041 153.856154,94.9026041 C158.41327,94.9026041 162.283144,95.4734411 165.465892,96.6151323 C168.64864,97.7568234 171.234584,99.3801412 173.223801,101.485134 C175.213019,103.590127 176.659701,106.123217 177.56389,109.084478 C178.46808,112.04574 178.920168,115.381568 178.920168,119.092065 L178.920168,123.90855 L159.389768,123.90855 L159.389768,119.62723 Z M186.732328,96.4010662 L206.913742,96.4010662 L206.913742,124.443715 L219.282996,124.443715 L219.282996,96.4010662 L239.464409,96.4010662 L239.464409,172.822637 L219.282996,172.822637 L219.282996,141.354931 L206.913742,141.354931 L206.913742,172.822637 L186.732328,172.822637 L186.732328,96.4010662 Z M248.253089,96.4010662 L268.434503,96.4010662 L268.434503,172.822637 L248.253089,172.822637 L248.253089,96.4010662 Z M271.255561,96.4010662 L292.413495,96.4010662 L300.551162,153.984827 L300.768166,153.984827 L308.905833,96.4010662 L330.389273,96.4010662 L313.679931,172.822637 L287.639397,172.822637 L271.255561,96.4010662 Z M333.64434,96.4010662 L379.540781,96.4010662 L379.540781,112.670084 L353.825754,112.670084 L353.825754,125.728112 L377.913248,125.728112 L377.913248,141.354931 L353.825754,141.354931 L353.825754,156.553619 L380.517301,156.553619 L380.517301,172.822637 L333.64434,172.822637 L333.64434,96.4010662 Z M418.059071,118.449867 L418.059071,116.630306 C418.059071,114.346923 417.588899,112.40251 416.648542,110.797006 C415.708184,109.191503 414.261503,108.388764 412.308453,108.388764 C410.138397,108.388764 408.547047,109.084471 407.534355,110.475907 C406.521662,111.867343 406.015324,113.419307 406.015324,115.131843 C406.015324,117.629293 406.829082,119.609384 408.456624,121.072176 C410.084165,122.534967 412.127603,123.801512 414.587,124.871847 C417.046396,125.942183 419.68659,127.030341 422.507662,128.136354 C425.328734,129.242368 427.968928,130.687299 430.428324,132.471191 C432.88772,134.255084 434.931158,136.591948 436.5587,139.481854 C438.186241,142.371759 439,146.135716 439,150.773836 C439,158.908386 436.649142,164.812981 431.947355,168.4878 C427.245569,172.162618 420.446164,174 411.548937,174 C407.353497,174 403.646375,173.661066 400.427459,172.983186 C397.208544,172.305307 394.496015,171.127956 392.289792,169.451097 C390.083569,167.774238 388.401802,165.580083 387.244439,162.868567 C386.087076,160.15705 385.508403,156.803383 385.508403,152.807464 L385.508403,150.131638 L405.038804,150.131638 L405.038804,151.9512 C405.038804,155.233562 405.653644,157.534748 406.883342,158.854829 C408.11304,160.174909 409.70439,160.83494 411.657439,160.83494 C413.75516,160.83494 415.364593,160.121393 416.485788,158.694279 C417.606984,157.267165 418.167573,155.518977 418.167573,153.449662 C418.167573,150.952212 417.389981,148.972121 415.834775,147.50933 C414.279569,146.046538 412.326548,144.797832 409.975655,143.763174 C407.624762,142.728516 405.074985,141.676036 402.326248,140.6057 C399.577511,139.535365 397.027735,138.14395 394.676841,136.431413 C392.325948,134.718876 390.372928,132.471205 388.817721,129.688333 C387.262515,126.905461 386.484923,123.266375 386.484923,118.770966 C386.484923,110.993195 388.582612,105.070761 392.778052,101.003486 C396.973493,96.936211 403.338893,94.9026041 411.874444,94.9026041 C420.699336,94.9026041 427.082819,96.775663 431.025087,100.521837 C434.967354,104.268011 436.938458,110.243961 436.938458,118.449867 L418.059071,118.449867 Z" id="ANALOG-ARCHIVES" fill="#000000"></path>
        </g>
    </g>
</svg>